# xmcd
#
# Track frame offsets:
#	150
#	23108
#	45458
#	69345
#	86708
#	105983
#	130258
#	148770
#	172920
#	197420
#	217720
#	248595
#	269258
#	287670
#	319550
#
# Disc length: 4609
#
# Revision: 1
# Processed by: cddbd v1.5.1PL0 Copyright (c) Steve Scherf et al.
# Submitted via: CDex 1.51
# Normalized: r0:DSETVAR1,TDELIM( - )
#
DISCID=c311ff0f
DTITLE=Various Artist - Bar Jazz Connection 2 [CD2)
DYEAR=2005
DGENRE=Jazz
TTITLE0=Spyro Gyra - Ariana
TTITLE1=Lee Ritenour - Fly By Night
TTITLE2=Jeff Golub - Vibrolux
TTITLE3=Candy Dulfer - pee Wee
TTITLE4=Peter White - Coast Road Drive
TTITLE5=Al DiMeola - Dark Eye Tango
TTITLE6=Tommy Emmanuel - Somethin's Goin' On
TTITLE7=Harold Mabern - Moment's Notice
TTITLE8=Ray Baretto - La Cuna
TTITLE9=Terence Blanchard - Orizimbo And Rosicler
TTITLE10=Antonio Hart - Ama Tu Sonrisa
TTITLE11=Craig Chaquico - Autumn Blue
TTITLE12=Greg Adams - Metro
TTITLE13=Black/Note - Dream Of Elizabeth Brown
TTITLE14=Gato Barbieri - Blue Gala
EXTD=YEAR: 2005
EXTT0=
EXTT1=
EXTT2=
EXTT3=
EXTT4=
EXTT5=
EXTT6=
EXTT7=
EXTT8=
EXTT9=
EXTT10=
EXTT11=
EXTT12=
EXTT13=
EXTT14=
PLAYORDER=
